<svg width="212" height="34" viewBox="0 0 212 34" fill="none" xmlns="http://www.w3.org/2000/svg">
<g clip-path="url(#clip0_6_185)">
<path d="M135.358 4.98942C135.933 5.56631 136.612 5.85475 137.395 5.85475C138.202 5.85475 138.894 5.56631 139.468 4.98942C140.043 4.41254 140.331 3.73132 140.331 2.94578C140.331 2.16023 140.043 1.47289 139.468 0.883735C138.894 0.294575 138.202 0 137.395 0C136.612 0 135.933 0.294575 135.358 0.883735C134.783 1.47289 134.496 2.16023 134.496 2.94578C134.496 3.73132 134.783 4.41254 135.358 4.98942Z" fill="#212067"/>
<path d="M73.449 12.5213C73.449 12.5817 73.4 12.6305 73.3397 12.6305H69.3021V20.2895C69.3021 20.9278 69.4612 21.3942 69.7792 21.6888C70.0972 21.9834 70.562 22.1491 71.1737 22.186C71.7332 22.2197 72.4156 22.2174 73.2209 22.1791L73.2416 22.1781L73.2788 22.1764L73.334 22.1735C73.3965 22.1703 73.449 22.2201 73.449 22.2827V26.3781C73.449 26.4337 73.4071 26.4804 73.3519 26.4865C73.325 26.4894 73.2979 26.4924 73.2778 26.4945C70.1145 26.8329 67.8781 26.5199 66.5681 25.5552C65.2347 24.5732 64.5681 22.818 64.5681 20.2895V12.6305H61.4846C61.4243 12.6305 61.3754 12.5817 61.3754 12.5213V8.17379C61.3754 8.11349 61.4243 8.06459 61.4846 8.06459H64.5681V5.02353C64.5681 4.93704 64.6192 4.85868 64.6983 4.82373L69.1488 2.85831C69.2209 2.82643 69.3021 2.87929 69.3021 2.95821V8.06459H73.3397C73.4 8.06459 73.449 8.11349 73.449 8.17379V12.5213Z" fill="#212067"/>
<path d="M82.0332 11.231C82.4736 10.0527 83.2014 9.16898 84.2168 8.57982C85.1458 8.04065 86.1724 7.7482 87.2962 7.70245C87.3505 7.70025 87.4338 7.69861 87.501 7.69755C87.5617 7.69659 87.6113 7.74565 87.6113 7.8064V12.8029C87.6113 12.9072 87.5207 12.9875 87.4168 12.9781C86.0516 12.8542 84.8259 13.1556 83.7396 13.8822C82.6021 14.6432 82.0332 15.9074 82.0332 17.6749V26.3662C82.0332 26.4265 81.9843 26.4754 81.924 26.4754H77.4084C77.3481 26.4754 77.2992 26.4265 77.2992 26.3662V8.17352C77.2992 8.1132 77.3481 8.06431 77.4084 8.06431H81.924C81.9843 8.06431 82.0332 8.1132 82.0332 8.17352V11.231Z" fill="#212067"/>
<path fill-rule="evenodd" clip-rule="evenodd" d="M104.418 8.06402C104.357 8.06402 104.308 8.11292 104.308 8.17324V10.2365C102.889 8.44452 100.895 7.54852 98.3266 7.54852C95.88 7.54852 93.7823 8.48747 92.0329 10.3654C90.2837 12.2434 89.4091 14.5447 89.4091 17.2696C89.4091 19.9944 90.2837 22.2958 92.0329 24.1738C93.7823 26.0517 95.88 26.9907 98.3266 26.9907C100.895 26.9907 102.889 26.0947 104.308 24.3026V26.366C104.308 26.4263 104.357 26.4751 104.418 26.4751H108.933C108.993 26.4751 109.042 26.4263 109.042 26.366V8.17324C109.042 8.11292 108.993 8.06402 108.933 8.06402H104.418ZM95.5739 21.0256C96.5281 21.9831 97.7391 22.4618 99.2071 22.4618C100.675 22.4618 101.892 21.977 102.858 21.0074C103.825 20.0377 104.308 18.7919 104.308 17.2698C104.308 15.7478 103.825 14.502 102.858 13.5324C101.892 12.5627 100.675 12.0779 99.2071 12.0779C97.7391 12.0779 96.5281 12.5627 95.5739 13.5324C94.6198 14.502 94.1427 15.7478 94.1427 17.2698C94.1427 18.7919 94.6198 20.0438 95.5739 21.0256Z" fill="#212067"/>
<path fill-rule="evenodd" clip-rule="evenodd" d="M129.604 10.3654C127.854 8.48747 125.744 7.54852 123.273 7.54852C120.705 7.54852 118.723 8.44452 117.328 10.2365V8.17324C117.328 8.11292 117.279 8.06402 117.219 8.06402H112.703C112.643 8.06402 112.594 8.11292 112.594 8.17324V33.7304C112.594 33.7907 112.643 33.8396 112.703 33.8396H117.219C117.279 33.8396 117.328 33.7907 117.328 33.7304V24.3026C118.723 26.0947 120.705 26.9907 123.273 26.9907C125.744 26.9907 127.854 26.0517 129.604 24.1738C131.353 22.2958 132.227 19.9944 132.227 17.2696C132.227 14.5447 131.353 12.2434 129.604 10.3654ZM118.759 21.0256C119.713 21.9831 120.924 22.4618 122.392 22.4618C123.86 22.4618 125.077 21.977 126.044 21.0074C127.01 20.0377 127.493 18.7919 127.493 17.2698C127.493 15.7478 127.01 14.502 126.044 13.5324C125.077 12.5627 123.86 12.0779 122.392 12.0779C120.924 12.0779 119.713 12.5627 118.759 13.5324C117.805 14.502 117.328 15.7478 117.328 17.2698C117.328 18.7919 117.805 20.0438 118.759 21.0256Z" fill="#212067"/>
<path d="M135.156 26.4756C135.096 26.4756 135.047 26.4267 135.047 26.3664V8.17364C135.047 8.11332 135.096 8.06442 135.156 8.06442H139.672C139.732 8.06442 139.781 8.11332 139.781 8.17364V26.3664C139.781 26.4267 139.732 26.4756 139.672 26.4756H135.156Z" fill="#212067"/>
<path d="M50.6534 14.4895C50.005 14.1826 49.6809 13.7837 49.6809 13.2928C49.6809 12.8264 49.8827 12.4581 50.2863 12.1881C50.69 11.9181 51.1978 11.7831 51.8093 11.7831C52.9821 11.7831 53.8682 12.2418 54.4672 13.1593C54.5091 13.2233 54.5904 13.2492 54.6603 13.2182L58.6543 11.4451C58.7138 11.4187 58.7373 11.3466 58.7041 11.2905C58.6601 11.2161 58.6021 11.119 58.5636 11.0583C57.8789 9.97843 56.9933 9.174 55.8829 8.56112C54.6595 7.88602 53.3017 7.54849 51.8093 7.54849C49.8276 7.54849 48.1701 8.07014 46.8368 9.11344C45.5034 10.1567 44.8367 11.5867 44.8367 13.4032C44.8367 14.6061 45.161 15.6064 45.8092 16.4042C46.4576 17.2021 47.2465 17.7851 48.1762 18.1533C49.106 18.5215 50.0357 18.8283 50.9654 19.0739C51.8949 19.3194 52.684 19.5956 53.3324 19.9024C53.9806 20.2092 54.3047 20.6082 54.3047 21.0991C54.3047 22.1547 53.4607 22.6825 51.7727 22.6825C50.1657 22.6825 49.0522 22.0865 48.432 20.8949C48.3788 20.7925 48.2569 20.7456 48.1514 20.7926L44.1686 22.5633C44.1124 22.5882 44.0879 22.6546 44.1145 22.7099C44.1307 22.7433 44.1477 22.7782 44.1601 22.8031C45.552 25.5948 48.0895 26.9907 51.7727 26.9907C53.8767 26.9907 55.632 26.4814 57.0387 25.4625C58.4455 24.4438 59.1489 22.9893 59.1489 21.0991C59.1489 19.8472 58.8247 18.8038 58.1764 17.9692C57.528 17.1346 56.7391 16.5392 55.8094 16.1834C54.8797 15.8274 53.95 15.5328 53.0204 15.2996C52.0907 15.0664 51.3017 14.7963 50.6534 14.4895Z" fill="#212067"/>
<path d="M0 11.7867C0 6.23037 0 3.45223 1.72611 1.72611C3.45223 0 6.23037 0 11.7867 0H22.2134C27.7697 0 30.5477 0 32.2739 1.72611C34 3.45223 34 6.23037 34 11.7867V22.2134C34 27.7697 34 30.5477 32.2739 32.2739C30.5477 34 27.7697 34 22.2134 34H11.7867C6.23037 34 3.45223 34 1.72611 32.2739C0 30.5477 0 27.7697 0 22.2134V11.7867Z" fill="#4945FF"/>
<path fill-rule="evenodd" clip-rule="evenodd" d="M23.46 10.3133H12.0132V16.15H17.85V21.9866H23.6866V10.54C23.6866 10.4148 23.5851 10.3133 23.46 10.3133Z" fill="white"/>
<path d="M17.8501 16.15H17.6234V16.3767H17.8501V16.15Z" fill="white"/>
<path d="M12.0132 16.15H17.6232C17.7485 16.15 17.85 16.2515 17.85 16.3766V21.9866H12.2399C12.1147 21.9866 12.0132 21.8852 12.0132 21.76V16.15Z" fill="#9593FF"/>
<path d="M17.8502 21.9866H23.6868L18.0436 27.6298C17.9722 27.7013 17.8502 27.6507 17.8502 27.5498V21.9866Z" fill="#9593FF"/>
<path d="M12.0134 16.15H6.45036C6.34938 16.15 6.29882 16.0279 6.37022 15.9565L12.0134 10.3133V16.15Z" fill="#9593FF"/>
<path d="M209.292 8.01886H152.679C151.262 8.01886 150.113 9.16771 150.113 10.5849V24.3773C150.113 25.7945 151.262 26.9434 152.679 26.9434H209.292C210.71 26.9434 211.859 25.7945 211.859 24.3773V10.5849C211.859 9.16771 210.71 8.01886 209.292 8.01886Z" fill="#4945FF"/>
<path d="M165.362 12.9745V22.2924H163.232V16.8747L160.823 20.8282H160.583L158.174 16.8747V22.2924H156.044V12.9745H158.174L160.703 17.1143L163.232 12.9745H165.362ZM173.007 22.2924L172.542 20.8282H169.081L168.614 22.2924H166.286L169.453 12.9745H172.168L175.337 22.2924H173.007ZM169.719 18.8315H171.902L170.812 15.4105L169.719 18.8315ZM181.149 22.2924L179.393 19.2308H178.381V22.2924H176.251V12.9745H179.979C181.749 12.9745 183.173 14.3988 183.173 16.1692C183.173 17.314 182.481 18.3523 181.456 18.8714L183.44 22.2924H181.149ZM178.381 14.9712V17.3673H179.979C180.564 17.3673 181.044 16.8481 181.044 16.1692C181.044 15.4904 180.564 14.9712 179.979 14.9712H178.381ZM192.095 22.2924H189.673L186.69 17.9796V22.2924H184.561V12.9745H186.69V17.0212L189.54 12.9745H191.962L188.82 17.5137L192.095 22.2924ZM195.144 20.2425H198.871V22.2924H193.014V12.9745H198.805V15.0245H195.144V16.5686H198.472V18.5919H195.144V20.2425ZM206.449 12.9745V15.0245H204.053V22.2924H201.923V15.0245H199.527V12.9745H206.449Z" fill="white"/>
</g>
<defs>
<clipPath id="clip0_6_185">
<rect width="211.858" height="34" fill="white"/>
</clipPath>
</defs>
</svg>
